<svg title="graph" version="1.1" xmlns="http://www.w3.org/2000/svg"><g transform="translate(100,50)"><g><text x="-80" y="70" font-size="20">T1</text><text x="-80" y="202" font-size="20">T2</text><text x="-80" y="334" font-size="20">T3</text><text x="-40" y="-10" font-size="20" text-anchor="middle">Mean:</text><text x="193" y="-10" font-size="20" text-anchor="middle">Accuracy (%)</text><text x="593" y="-10" font-size="20" text-anchor="middle">Timecost (seconds)</text></g><g transform="translate(18, 382)" fill="none" font-size="10" font-family="sans-serif" text-anchor="middle" stroke-width="0.5" stroke-opacity="0.5"><path class="domain" stroke="currentColor" d="M0.5,-382V0.5H350.5V-382"></path><g class="tick" opacity="1" transform="translate(0.5,0)"><line stroke="currentColor" y2="-382"></line><text fill="currentColor" y="3" dy="0.71em">0%</text></g><g class="tick" opacity="1" transform="translate(88,0)"><line stroke="currentColor" y2="-382"></line><text fill="currentColor" y="3" dy="0.71em">10%</text></g><g class="tick" opacity="1" transform="translate(175.5,0)"><line stroke="currentColor" y2="-382"></line><text fill="currentColor" y="3" dy="0.71em">20%</text></g><g class="tick" opacity="1" transform="translate(262.99999999999994,0)"><line stroke="currentColor" y2="-382"></line><text fill="currentColor" y="3" dy="0.71em">30%</text></g><g class="tick" opacity="1" transform="translate(350.5,0)"><line stroke="currentColor" y2="-382"></line><text fill="currentColor" y="3" dy="0.71em">40%</text></g></g><g transform="translate(0, 0)"><path d="M -100,0 L 718,0" stroke-width="1" stroke="#000"></path></g><g transform="translate(18, 0)" fill="none" font-size="10" font-family="sans-serif" text-anchor="end" stroke-opacity="0.5"><path class="domain" stroke="currentColor" d="M0.5,0.5V132.5"></path><g class="tick" opacity="1" transform="translate(0,0.5)"><line stroke="currentColor" x2="0"></line><text fill="currentColor" x="-3" dy="0.32em"></text></g><g class="tick" opacity="1" transform="translate(0,32.5)"><line stroke="currentColor" x2="0"></line><text fill="currentColor" x="-3" dy="0.32em">Sugiyama</text></g><g class="tick" opacity="1" transform="translate(0,66.5)"><line stroke="currentColor" x2="0"></line><text fill="currentColor" x="-3" dy="0.32em">ILP</text></g><g class="tick" opacity="1" transform="translate(0,100.5)"><line stroke="currentColor" x2="0"></line><text fill="currentColor" x="-3" dy="0.32em">NeatSankey</text></g><g transform="translate(2, 20)"><rect height="24" width="190.44117647058823" style="fill: rgb(225, 213, 233); fill-opacity: 0.9;"></rect></g><g transform="translate(2, 54)"><rect height="24" width="169.85294117647058" style="fill: rgb(213, 232, 212); fill-opacity: 0.9;"></rect></g><g transform="translate(2, 88)"><rect height="24" width="236.73897058823525" style="fill: rgb(255, 230, 205); fill-opacity: 0.9;"></rect></g></g><g><path d="M 200.0076346081991,32 L 220.87471833297732,32" style="stroke: rgb(0, 0, 0); stroke-opacity: 0.8; stroke-width: 0.7;"></path><path d="M 181.234705175318,66 L 198.47117717762316,66" style="stroke: rgb(0, 0, 0); stroke-opacity: 0.8; stroke-width: 0.7;"></path><path d="M 246.13214334489294,100 L 267.34579783157756,100" style="stroke: rgb(0, 0, 0); stroke-opacity: 0.8; stroke-width: 0.7;"></path></g><g><circle cx="210.44117647058823" cy="32" r="2" stroke="#000" fill="" style="stroke-opacity: 0.8; stroke-width: 1.5;"></circle><circle cx="189.85294117647058" cy="66" r="2" stroke="#000" fill="" style="stroke-opacity: 0.8; stroke-width: 1.5;"></circle><circle cx="256.73897058823525" cy="100" r="2" stroke="#000" fill="" style="stroke-opacity: 0.8; stroke-width: 1.5;"></circle></g><g><circle cx="210.44117647058823" cy="32" r="3.2" stroke="#fff" fill="none" style="stroke-opacity: 0.8; stroke-width: 1.5;"></circle><circle cx="189.85294117647058" cy="66" r="3.2" stroke="#fff" fill="none" style="stroke-opacity: 0.8; stroke-width: 1.5;"></circle><circle cx="256.73897058823525" cy="100" r="3.2" stroke="#fff" fill="none" style="stroke-opacity: 0.8; stroke-width: 1.5;"></circle></g><g transform="translate(0, 132)"><path d="M -100,0 L 718,0" stroke-width="1" stroke="#000"></path></g><g transform="translate(18, 132)" fill="none" font-size="10" font-family="sans-serif" text-anchor="end" stroke-opacity="0.5"><path class="domain" stroke="currentColor" d="M0.5,0.5V132.5"></path><g class="tick" opacity="1" transform="translate(0,0.5)"><line stroke="currentColor" x2="0"></line><text fill="currentColor" x="-3" dy="0.32em"></text></g><g class="tick" opacity="1" transform="translate(0,32.5)"><line stroke="currentColor" x2="0"></line><text fill="currentColor" x="-3" dy="0.32em">Sugiyama</text></g><g class="tick" opacity="1" transform="translate(0,66.5)"><line stroke="currentColor" x2="0"></line><text fill="currentColor" x="-3" dy="0.32em">ILP</text></g><g class="tick" opacity="1" transform="translate(0,100.5)"><line stroke="currentColor" x2="0"></line><text fill="currentColor" x="-3" dy="0.32em">NeatSankey</text></g><g transform="translate(2, 20)"><rect height="24" width="252.2058823529412" style="fill: rgb(225, 213, 233); fill-opacity: 0.9;"></rect></g><g transform="translate(2, 54)"><rect height="24" width="211.02941176470583" style="fill: rgb(213, 232, 212); fill-opacity: 0.9;"></rect></g><g transform="translate(2, 88)"><rect height="24" width="313.97058823529414" style="fill: rgb(255, 230, 205); fill-opacity: 0.9;"></rect></g></g><g><path d="M 260.85424606941996,165 L 283.5575186364624,165" style="stroke: rgb(0, 0, 0); stroke-opacity: 0.8; stroke-width: 0.7;"></path><path d="M 219.19259949406614,199 L 242.8662240353456,199" style="stroke: rgb(0, 0, 0); stroke-opacity: 0.8; stroke-width: 0.7;"></path><path d="M 323.0683306225888,233 L 344.8728458479995,233" style="stroke: rgb(0, 0, 0); stroke-opacity: 0.8; stroke-width: 0.7;"></path></g><g><circle cx="272.2058823529412" cy="165" r="2" stroke="#000" fill="" style="stroke-opacity: 0.8; stroke-width: 1.5;"></circle><circle cx="231.02941176470583" cy="199" r="2" stroke="#000" fill="" style="stroke-opacity: 0.8; stroke-width: 1.5;"></circle><circle cx="333.97058823529414" cy="233" r="2" stroke="#000" fill="" style="stroke-opacity: 0.8; stroke-width: 1.5;"></circle></g><g><circle cx="272.2058823529412" cy="165" r="3.2" stroke="#fff" fill="none" style="stroke-opacity: 0.8; stroke-width: 1.5;"></circle><circle cx="231.02941176470583" cy="199" r="3.2" stroke="#fff" fill="none" style="stroke-opacity: 0.8; stroke-width: 1.5;"></circle><circle cx="333.97058823529414" cy="233" r="3.2" stroke="#fff" fill="none" style="stroke-opacity: 0.8; stroke-width: 1.5;"></circle></g><g transform="translate(0, 257)"><path d="M -100,0 L 718,0" stroke-width="1" stroke="#000"></path></g><g transform="translate(18, 252)" fill="none" font-size="10" font-family="sans-serif" text-anchor="end" stroke-opacity="0.5"><path class="domain" stroke="currentColor" d="M0.5,0.5V132.5"></path><g class="tick" opacity="1" transform="translate(0,0.5)"><line stroke="currentColor" x2="0"></line><text fill="currentColor" x="-3" dy="0.32em"></text></g><g class="tick" opacity="1" transform="translate(0,32.5)"><line stroke="currentColor" x2="0"></line><text fill="currentColor" x="-3" dy="0.32em">Sugiyama</text></g><g class="tick" opacity="1" transform="translate(0,66.5)"><line stroke="currentColor" x2="0"></line><text fill="currentColor" x="-3" dy="0.32em">ILP</text></g><g class="tick" opacity="1" transform="translate(0,100.5)"><line stroke="currentColor" x2="0"></line><text fill="currentColor" x="-3" dy="0.32em">NeatSankey</text></g><g transform="translate(2, 20)"><rect height="24" width="252.2058823529412" style="fill: rgb(225, 213, 233); fill-opacity: 0.9;"></rect></g><g transform="translate(2, 54)"><rect height="24" width="241.91176470588235" style="fill: rgb(213, 232, 212); fill-opacity: 0.9;"></rect></g><g transform="translate(2, 88)"><rect height="24" width="277.94117647058823" style="fill: rgb(255, 230, 205); fill-opacity: 0.9;"></rect></g></g><g><path d="M 261.1706654654261,285 L 283.24109924045626,285" style="stroke: rgb(0, 0, 0); stroke-opacity: 0.8; stroke-width: 0.7;"></path><path d="M 251.26083404052764,319 L 272.56269537123706,319" style="stroke: rgb(0, 0, 0); stroke-opacity: 0.8; stroke-width: 0.7;"></path><path d="M 285.14442049005237,353 L 310.73793245112415,353" style="stroke: rgb(0, 0, 0); stroke-opacity: 0.8; stroke-width: 0.7;"></path></g><g><circle cx="272.2058823529412" cy="285" r="2" stroke="#000" fill="" style="stroke-opacity: 0.8; stroke-width: 1.5;"></circle><circle cx="261.9117647058823" cy="319" r="2" stroke="#000" fill="" style="stroke-opacity: 0.8; stroke-width: 1.5;"></circle><circle cx="297.94117647058823" cy="353" r="2" stroke="#000" fill="" style="stroke-opacity: 0.8; stroke-width: 1.5;"></circle></g><g><circle cx="272.2058823529412" cy="285" r="3.2" stroke="#fff" fill="none" style="stroke-opacity: 0.8; stroke-width: 1.5;"></circle><circle cx="261.9117647058823" cy="319" r="3.2" stroke="#fff" fill="none" style="stroke-opacity: 0.8; stroke-width: 1.5;"></circle><circle cx="297.94117647058823" cy="353" r="3.2" stroke="#fff" fill="none" style="stroke-opacity: 0.8; stroke-width: 1.5;"></circle></g><g transform="translate(0, 382)"><path d="M -100,0 L 718,0" stroke-width="1" stroke="#000"></path></g><g transform="translate(18, 382)" fill="none" font-size="10" font-family="sans-serif" text-anchor="middle" stroke-width="0.5" stroke-opacity="0.5"><path class="domain" stroke="currentColor" d="M375.5,-382V0.5H750.5V-382"></path><g class="tick" opacity="1" transform="translate(375.5,0)"><line stroke="currentColor" y2="-382"></line><text fill="currentColor" y="3" dy="0.71em">0</text></g><g class="tick" opacity="1" transform="translate(469.25,0)"><line stroke="currentColor" y2="-382"></line><text fill="currentColor" y="3" dy="0.71em">100</text></g><g class="tick" opacity="1" transform="translate(563,0)"><line stroke="currentColor" y2="-382"></line><text fill="currentColor" y="3" dy="0.71em">200</text></g><g class="tick" opacity="1" transform="translate(656.75,0)"><line stroke="currentColor" y2="-382"></line><text fill="currentColor" y="3" dy="0.71em">300</text></g><g class="tick" opacity="1" transform="translate(750.5,0)"><line stroke="currentColor" y2="-382"></line><text fill="currentColor" y="3" dy="0.71em">400</text></g></g><g transform="translate(375, 0)"><path d="M 0,0 L 411,0" stroke-width="1" stroke="#000"></path></g><g transform="translate(393, 0)" stroke-opacity="0.5"><g transform="translate(2, 20)"><rect height="24" width="336.36945772058823" style="fill: rgb(225, 213, 233); fill-opacity: 0.9;"></rect></g><g transform="translate(2, 54)"><rect height="24" width="192.49078125000005" style="fill: rgb(213, 232, 212); fill-opacity: 0.9;"></rect></g><g transform="translate(2, 88)"><rect height="24" width="181.68195772058823" style="fill: rgb(255, 230, 205); fill-opacity: 0.9;"></rect></g></g><g><path d="M 719.7086792771252,32 L 743.0302361640513,32" style="stroke: rgb(0, 0, 0); stroke-opacity: 0.8; stroke-width: 0.7;"></path><path d="M 579.9047315985322,66 L 595.0768309014678,66" style="stroke: rgb(0, 0, 0); stroke-opacity: 0.8; stroke-width: 0.7;"></path><path d="M 569.2892828719804,100 L 584.0746325691961,100" style="stroke: rgb(0, 0, 0); stroke-opacity: 0.8; stroke-width: 0.7;"></path></g><g><circle cx="731.3694577205882" cy="32" r="2" stroke="#000" fill="" style="stroke-opacity: 0.8; stroke-width: 1.5;"></circle><circle cx="587.49078125" cy="66" r="2" stroke="#000" fill="" style="stroke-opacity: 0.8; stroke-width: 1.5;"></circle><circle cx="576.6819577205882" cy="100" r="2" stroke="#000" fill="" style="stroke-opacity: 0.8; stroke-width: 1.5;"></circle></g><g><circle cx="731.3694577205882" cy="32" r="3.2" stroke="#fff" fill="none" style="stroke-opacity: 0.8; stroke-width: 1.5;"></circle><circle cx="587.49078125" cy="66" r="3.2" stroke="#fff" fill="none" style="stroke-opacity: 0.8; stroke-width: 1.5;"></circle><circle cx="576.6819577205882" cy="100" r="3.2" stroke="#fff" fill="none" style="stroke-opacity: 0.8; stroke-width: 1.5;"></circle></g><g transform="translate(375, 132)"><path d="M 0,0 L 411,0" stroke-width="1" stroke="#000"></path></g><g transform="translate(393, 132)" stroke-opacity="0.5"><g transform="translate(2, 20)"><rect height="24" width="264.67828124999994" style="fill: rgb(225, 213, 233); fill-opacity: 0.9;"></rect></g><g transform="translate(2, 54)"><rect height="24" width="171.3143106617647" style="fill: rgb(213, 232, 212); fill-opacity: 0.9;"></rect></g><g transform="translate(2, 88)"><rect height="24" width="160.78122242647055" style="fill: rgb(255, 230, 205); fill-opacity: 0.9;"></rect></g></g><g><path d="M 651.437035621392,165 L 667.9195268786078,165" style="stroke: rgb(0, 0, 0); stroke-opacity: 0.8; stroke-width: 0.7;"></path><path d="M 560.1755568466094,199 L 572.45306447692,199" style="stroke: rgb(0, 0, 0); stroke-opacity: 0.8; stroke-width: 0.7;"></path><path d="M 549.85213305915,233 L 561.7103117937912,233" style="stroke: rgb(0, 0, 0); stroke-opacity: 0.8; stroke-width: 0.7;"></path></g><g><circle cx="659.6782812499999" cy="165" r="2" stroke="#000" fill="" style="stroke-opacity: 0.8; stroke-width: 1.5;"></circle><circle cx="566.3143106617647" cy="199" r="2" stroke="#000" fill="" style="stroke-opacity: 0.8; stroke-width: 1.5;"></circle><circle cx="555.7812224264705" cy="233" r="2" stroke="#000" fill="" style="stroke-opacity: 0.8; stroke-width: 1.5;"></circle></g><g><circle cx="659.6782812499999" cy="165" r="3.2" stroke="#fff" fill="none" style="stroke-opacity: 0.8; stroke-width: 1.5;"></circle><circle cx="566.3143106617647" cy="199" r="3.2" stroke="#fff" fill="none" style="stroke-opacity: 0.8; stroke-width: 1.5;"></circle><circle cx="555.7812224264705" cy="233" r="3.2" stroke="#fff" fill="none" style="stroke-opacity: 0.8; stroke-width: 1.5;"></circle></g><g transform="translate(375, 257)"><path d="M 0,0 L 411,0" stroke-width="1" stroke="#000"></path></g><g transform="translate(393, 252)" stroke-opacity="0.5"><g transform="translate(2, 20)"><rect height="24" width="264.4576930147059" style="fill: rgb(225, 213, 233); fill-opacity: 0.9;"></rect></g><g transform="translate(2, 54)"><rect height="24" width="148.86945772058823" style="fill: rgb(213, 232, 212); fill-opacity: 0.9;"></rect></g><g transform="translate(2, 88)"><rect height="24" width="139.41173713235298" style="fill: rgb(255, 230, 205); fill-opacity: 0.9;"></rect></g></g><g><path d="M 651.0362986269821,285 L 667.8790874024297,285" style="stroke: rgb(0, 0, 0); stroke-opacity: 0.8; stroke-width: 0.7;"></path><path d="M 538.9257078438693,319 L 548.8132075973072,319" style="stroke: rgb(0, 0, 0); stroke-opacity: 0.8; stroke-width: 0.7;"></path><path d="M 529.6690089232757,353 L 539.1544653414302,353" style="stroke: rgb(0, 0, 0); stroke-opacity: 0.8; stroke-width: 0.7;"></path></g><g><circle cx="659.4576930147059" cy="285" r="2" stroke="#000" fill="" style="stroke-opacity: 0.8; stroke-width: 1.5;"></circle><circle cx="543.8694577205882" cy="319" r="2" stroke="#000" fill="" style="stroke-opacity: 0.8; stroke-width: 1.5;"></circle><circle cx="534.411737132353" cy="353" r="2" stroke="#000" fill="" style="stroke-opacity: 0.8; stroke-width: 1.5;"></circle></g><g><circle cx="659.4576930147059" cy="285" r="3.2" stroke="#fff" fill="none" style="stroke-opacity: 0.8; stroke-width: 1.5;"></circle><circle cx="543.8694577205882" cy="319" r="3.2" stroke="#fff" fill="none" style="stroke-opacity: 0.8; stroke-width: 1.5;"></circle><circle cx="534.411737132353" cy="353" r="3.2" stroke="#fff" fill="none" style="stroke-opacity: 0.8; stroke-width: 1.5;"></circle></g><g transform="translate(375, 382)"><path d="M 0,0 L 411,0" stroke-width="1" stroke="#000"></path></g></g></svg>