<svg title="graph" version="1.1" xmlns="http://www.w3.org/2000/svg"><g><rect width="900" height="500" x="0" y="0" id="0" style="fill: transparent;"></rect></g><g><path d="M 90.5 440 L 90.5 60" fill="none" stroke="#333" stroke-width="1" paint-order="fill" stroke-opacity="1" stroke-dasharray="" stroke-linecap="round" stroke-linejoin="miter" stroke-miterlimit="10" clip-path="none"></path><path d="M 90 440.5 L 810 440.5" fill="none" stroke="#333" stroke-width="1" paint-order="fill" stroke-opacity="1" stroke-dasharray="" stroke-linecap="round" stroke-linejoin="miter" stroke-miterlimit="10" clip-path="none"></path><path d="M 90 440.5 L 85 440.5" fill="none" stroke="#333" stroke-width="1" paint-order="fill" stroke-opacity="1" stroke-dasharray="" stroke-linecap="butt" stroke-linejoin="miter" stroke-miterlimit="10" clip-path="none"></path><path d="M 90 385.5 L 85 385.5" fill="none" stroke="#333" stroke-width="1" paint-order="fill" stroke-opacity="1" stroke-dasharray="" stroke-linecap="butt" stroke-linejoin="miter" stroke-miterlimit="10" clip-path="none"></path><path d="M 90 331.5 L 85 331.5" fill="none" stroke="#333" stroke-width="1" paint-order="fill" stroke-opacity="1" stroke-dasharray="" stroke-linecap="butt" stroke-linejoin="miter" stroke-miterlimit="10" clip-path="none"></path><path d="M 90 277.5 L 85 277.5" fill="none" stroke="#333" stroke-width="1" paint-order="fill" stroke-opacity="1" stroke-dasharray="" stroke-linecap="butt" stroke-linejoin="miter" stroke-miterlimit="10" clip-path="none"></path><path d="M 90 223.5 L 85 223.5" fill="none" stroke="#333" stroke-width="1" paint-order="fill" stroke-opacity="1" stroke-dasharray="" stroke-linecap="butt" stroke-linejoin="miter" stroke-miterlimit="10" clip-path="none"></path><path d="M 90 168.5 L 85 168.5" fill="none" stroke="#333" stroke-width="1" paint-order="fill" stroke-opacity="1" stroke-dasharray="" stroke-linecap="butt" stroke-linejoin="miter" stroke-miterlimit="10" clip-path="none"></path><path d="M 90 114.5 L 85 114.5" fill="none" stroke="#333" stroke-width="1" paint-order="fill" stroke-opacity="1" stroke-dasharray="" stroke-linecap="butt" stroke-linejoin="miter" stroke-miterlimit="10" clip-path="none"></path><path d="M 90 60.5 L 85 60.5" fill="none" stroke="#333" stroke-width="1" paint-order="fill" stroke-opacity="1" stroke-dasharray="" stroke-linecap="butt" stroke-linejoin="miter" stroke-miterlimit="10" clip-path="none"></path><path d="M 90.5 440 L 90.5 445" fill="none" stroke="#333" stroke-width="1" paint-order="fill" stroke-opacity="1" stroke-dasharray="" stroke-linecap="butt" stroke-linejoin="miter" stroke-miterlimit="10" clip-path="none"></path><path d="M 270.5 440 L 270.5 445" fill="none" stroke="#333" stroke-width="1" paint-order="fill" stroke-opacity="1" stroke-dasharray="" stroke-linecap="butt" stroke-linejoin="miter" stroke-miterlimit="10" clip-path="none"></path><path d="M 450.5 440 L 450.5 445" fill="none" stroke="#333" stroke-width="1" paint-order="fill" stroke-opacity="1" stroke-dasharray="" stroke-linecap="butt" stroke-linejoin="miter" stroke-miterlimit="10" clip-path="none"></path><path d="M 630.5 440 L 630.5 445" fill="none" stroke="#333" stroke-width="1" paint-order="fill" stroke-opacity="1" stroke-dasharray="" stroke-linecap="butt" stroke-linejoin="miter" stroke-miterlimit="10" clip-path="none"></path><path d="M 810.5 440 L 810.5 445" fill="none" stroke="#333" stroke-width="1" paint-order="fill" stroke-opacity="1" stroke-dasharray="" stroke-linecap="butt" stroke-linejoin="miter" stroke-miterlimit="10" clip-path="none"></path><text transform="matrix(1,2.4492937051703357e-16,-2.4492937051703357e-16,1,82,440)" fill="#333" fill-opacity="1" stroke="none" clip-path="none" style="font: 12px &quot;Microsoft YaHei&quot;;"><tspan dominant-baseline="middle" text-anchor="end" x="0" y="0">0</tspan></text><text transform="matrix(1,2.4492937051703357e-16,-2.4492937051703357e-16,1,82,385.71429443359375)" fill="#333" fill-opacity="1" stroke="none" clip-path="none" style="font: 12px &quot;Microsoft YaHei&quot;;"><tspan dominant-baseline="middle" text-anchor="end" x="0" y="0">100</tspan></text><text transform="matrix(1,2.4492937051703357e-16,-2.4492937051703357e-16,1,82,331.4285888671875)" fill="#333" fill-opacity="1" stroke="none" clip-path="none" style="font: 12px &quot;Microsoft YaHei&quot;;"><tspan dominant-baseline="middle" text-anchor="end" x="0" y="0">200</tspan></text><text transform="matrix(1,2.4492937051703357e-16,-2.4492937051703357e-16,1,82,277.1428527832031)" fill="#333" fill-opacity="1" stroke="none" clip-path="none" style="font: 12px &quot;Microsoft YaHei&quot;;"><tspan dominant-baseline="middle" text-anchor="end" x="0" y="0">300</tspan></text><text transform="matrix(1,2.4492937051703357e-16,-2.4492937051703357e-16,1,82,222.85714721679688)" fill="#333" fill-opacity="1" stroke="none" clip-path="none" style="font: 12px &quot;Microsoft YaHei&quot;;"><tspan dominant-baseline="middle" text-anchor="end" x="0" y="0">400</tspan></text><text transform="matrix(1,2.4492937051703357e-16,-2.4492937051703357e-16,1,82,168.57144165039062)" fill="#333" fill-opacity="1" stroke="none" clip-path="none" style="font: 12px &quot;Microsoft YaHei&quot;;"><tspan dominant-baseline="middle" text-anchor="end" x="0" y="0">500</tspan></text><text transform="matrix(1,2.4492937051703357e-16,-2.4492937051703357e-16,1,82,114.28570556640625)" fill="#333" fill-opacity="1" stroke="none" clip-path="none" style="font: 12px &quot;Microsoft YaHei&quot;;"><tspan dominant-baseline="middle" text-anchor="end" x="0" y="0">600</tspan></text><text transform="matrix(1,2.4492937051703357e-16,-2.4492937051703357e-16,1,82,60)" fill="#333" fill-opacity="1" stroke="none" clip-path="none" style="font: 12px &quot;Microsoft YaHei&quot;;"><tspan dominant-baseline="middle" text-anchor="end" x="0" y="0">700</tspan></text><text transform="matrix(1,0,0,1,180,448)" fill="#333" fill-opacity="1" stroke="none" clip-path="none" style="font: 12px &quot;Microsoft YaHei&quot;;"><tspan dominant-baseline="middle" text-anchor="middle" x="0" y="6">Economics</tspan></text><text transform="matrix(1,0,0,1,360,448)" fill="#333" fill-opacity="1" stroke="none" clip-path="none" style="font: 12px &quot;Microsoft YaHei&quot;;"><tspan dominant-baseline="middle" text-anchor="middle" x="0" y="6">Teacher</tspan></text><text transform="matrix(1,0,0,1,540,448)" fill="#333" fill-opacity="1" stroke="none" clip-path="none" style="font: 12px &quot;Microsoft YaHei&quot;;"><tspan dominant-baseline="middle" text-anchor="middle" x="0" y="6">Computer</tspan></text><text transform="matrix(1,0,0,1,720,448)" fill="#333" fill-opacity="1" stroke="none" clip-path="none" style="font: 12px &quot;Microsoft YaHei&quot;;"><tspan dominant-baseline="middle" text-anchor="middle" x="0" y="6">Mechanism</tspan></text><path d="M 109 373.3192 L 146.8667 373.3192 L 146.8667 337.4904 L 109 337.4904 Z M 127.9333 374.1335 L 127.9333 373.3192 M 127.9333 328.3522 L 127.9333 337.4904 M 109 374.1335 L 146.8667 374.1335 M 109 328.3522 L 146.8667 328.3522 M 109 367.8907 L 146.8667 367.8907" fill="#fff" fill-opacity="1" stroke="#c23531" stroke-width="1" paint-order="fill" stroke-opacity="1" stroke-dasharray="" stroke-linecap="butt" stroke-linejoin="miter" stroke-miterlimit="10" clip-path="none"></path><path d="M 289 432.8977 L 326.8667 432.8977 L 326.8667 365.3571 L 289 365.3571 Z M 307.9333 434.5714 L 307.9333 432.8977 M 307.9333 357.4857 L 307.9333 365.3571 M 289 434.5714 L 326.8667 434.5714 M 289 357.4857 L 326.8667 357.4857 M 289 408.4239 L 326.8667 408.4239" fill="#fff" fill-opacity="1" stroke="#c23531" stroke-width="1" paint-order="fill" stroke-opacity="1" stroke-dasharray="" stroke-linecap="butt" stroke-linejoin="miter" stroke-miterlimit="10" clip-path="none"></path><path d="M 469 342.8739 L 506.8667 342.8739 L 506.8667 307.8142 L 469 307.8142 Z M 487.9333 409.6 L 487.9333 342.8739 M 487.9333 245.4764 L 487.9333 307.8142 M 469 409.6 L 506.8667 409.6 M 469 245.4764 L 506.8667 245.4764 M 469 326.8143 L 506.8667 326.8143" fill="#fff" fill-opacity="1" stroke="#c23531" stroke-width="1" paint-order="fill" stroke-opacity="1" stroke-dasharray="" stroke-linecap="butt" stroke-linejoin="miter" stroke-miterlimit="10" clip-path="none"></path><path d="M 649 410.3238 L 686.8667 410.3238 L 686.8667 265.2 L 649 265.2 Z M 667.9333 432.4 L 667.9333 410.3238 M 667.9333 265.2 L 667.9333 265.2 M 649 432.4 L 686.8667 432.4 M 649 265.2 L 686.8667 265.2 M 649 304.6475 L 686.8667 304.6475" fill="#fff" fill-opacity="1" stroke="#c23531" stroke-width="1" paint-order="fill" stroke-opacity="1" stroke-dasharray="" stroke-linecap="butt" stroke-linejoin="miter" stroke-miterlimit="10" clip-path="none"></path><path d="M 161.0667 378.3404 L 198.9333 378.3404 L 198.9333 340.0238 L 161.0667 340.0238 Z M 180 378.8379 L 180 378.3404 M 180 328.1714 L 180 340.0238 M 161.0667 378.8379 L 198.9333 378.8379 M 161.0667 328.1714 L 198.9333 328.1714 M 161.0667 376.2143 L 198.9333 376.2143" fill="#fff" fill-opacity="1" stroke="#2f4554" stroke-width="1" paint-order="fill" stroke-opacity="1" stroke-dasharray="" stroke-linecap="butt" stroke-linejoin="miter" stroke-miterlimit="10" clip-path="none"></path><path d="M 341.0667 431.2239 L 378.9333 431.2239 L 378.9333 377.1192 L 341.0667 377.1192 Z M 360 432.2192 L 360 431.2239 M 360 370.3335 L 360 377.1192 M 341.0667 432.2192 L 378.9333 432.2192 M 341.0667 370.3335 L 378.9333 370.3335 M 341.0667 412.8571 L 378.9333 412.8571" fill="#fff" fill-opacity="1" stroke="#2f4554" stroke-width="1" paint-order="fill" stroke-opacity="1" stroke-dasharray="" stroke-linecap="butt" stroke-linejoin="miter" stroke-miterlimit="10" clip-path="none"></path><path d="M 521.0667 350.7904 L 558.9333 350.7904 L 558.9333 310.8 L 521.0667 310.8 Z M 540 406.7049 L 540 350.7904 M 540 251.6286 L 540 310.8 M 521.0667 406.7049 L 558.9333 406.7049 M 521.0667 251.6286 L 558.9333 251.6286 M 521.0667 335.5 L 558.9333 335.5" fill="#fff" fill-opacity="1" stroke="#2f4554" stroke-width="1" paint-order="fill" stroke-opacity="1" stroke-dasharray="" stroke-linecap="butt" stroke-linejoin="miter" stroke-miterlimit="10" clip-path="none"></path><path d="M 701.0667 406.1165 L 738.9333 406.1165 L 738.9333 274.6096 L 701.0667 274.6096 Z M 720 424.4379 L 720 406.1165 M 720 274.2478 L 720 274.6096 M 701.0667 424.4379 L 738.9333 424.4379 M 701.0667 274.2478 L 738.9333 274.2478 M 701.0667 313.4236 L 738.9333 313.4236" fill="#fff" fill-opacity="1" stroke="#2f4554" stroke-width="1" paint-order="fill" stroke-opacity="1" stroke-dasharray="" stroke-linecap="butt" stroke-linejoin="miter" stroke-miterlimit="10" clip-path="none"></path><path d="M 213.1333 274.5191 L 251 274.5191 L 251 212.5882 L 213.1333 212.5882 Z M 232.0667 274.9714 L 232.0667 274.5191 M 232.0667 202.5907 L 232.0667 212.5882 M 213.1333 274.9714 L 251 274.9714 M 213.1333 202.5907 L 251 202.5907 M 213.1333 257.8714 L 251 257.8714" fill="#fff" fill-opacity="1" stroke="#61a0a8" stroke-width="1" paint-order="fill" stroke-opacity="1" stroke-dasharray="" stroke-linecap="butt" stroke-linejoin="miter" stroke-miterlimit="10" clip-path="none"></path><path d="M 393.1333 418.5121 L 431 418.5121 L 431 297.8166 L 393.1333 297.8166 Z M 412.0667 430.0478 L 412.0667 418.5121 M 412.0667 283.1143 L 412.0667 297.8166 M 393.1333 430.0478 L 431 430.0478 M 393.1333 283.1143 L 431 283.1143 M 393.1333 362.9143 L 431 362.9143" fill="#fff" fill-opacity="1" stroke="#61a0a8" stroke-width="1" paint-order="fill" stroke-opacity="1" stroke-dasharray="" stroke-linecap="butt" stroke-linejoin="miter" stroke-miterlimit="10" clip-path="none"></path><path d="M 573.1333 296.6856 L 611 296.6856 L 611 214.9856 L 573.1333 214.9856 Z M 592.0667 396.7522 L 592.0667 296.6856 M 592.0667 73.3907 L 592.0667 214.9856 M 573.1333 396.7522 L 611 396.7522 M 573.1333 73.3907 L 611 73.3907 M 573.1333 263.3904 L 611 263.3904" fill="#fff" fill-opacity="1" stroke="#61a0a8" stroke-width="1" paint-order="fill" stroke-opacity="1" stroke-dasharray="" stroke-linecap="butt" stroke-linejoin="miter" stroke-miterlimit="10" clip-path="none"></path><path d="M 753.1333 359.7475 L 791 359.7475 L 791 206.2093 L 753.1333 206.2093 Z M 772.0667 394.5808 L 772.0667 359.7475 M 772.0667 206.2093 L 772.0667 206.2093 M 753.1333 394.5808 L 791 394.5808 M 753.1333 206.2093 L 791 206.2093 M 753.1333 230.7286 L 791 230.7286" fill="#fff" fill-opacity="1" stroke="#61a0a8" stroke-width="1" paint-order="fill" stroke-opacity="1" stroke-dasharray="" stroke-linecap="butt" stroke-linejoin="miter" stroke-miterlimit="10" clip-path="none"></path><path d="M -5 -5 L 315.7422 -5 L 315.7422 19 L -5 19 L -5 -5 Z" fill="rgba(0,0,0,0)" fill-opacity="1" stroke="#ccc" stroke-width="0" paint-order="fill" stroke-opacity="1" stroke-dasharray="" stroke-linecap="butt" stroke-linejoin="miter" stroke-miterlimit="10" transform="matrix(1,0,0,1,294.62890625,5)" clip-path="none"></path><path d="M 3.5 0 L 21.5 0 A 3.5 3.5 0 0 1 25 3.5 L 25 10.5 A 3.5 3.5 0 0 1 21.5 14 L 3.5 14 A 3.5 3.5 0 0 1 0 10.5 L 0 3.5 A 3.5 3.5 0 0 1 3.5 0 Z" fill="#c23531" fill-opacity="1" stroke="none" transform="matrix(1,0,0,1,294.62890625,5)" clip-path="none"></path><text transform="matrix(1,0,0,1,294.62890625,5)" fill="#333" fill-opacity="1" stroke="none" clip-path="none" style="font: 12px &quot;Microsoft YaHei&quot;;"><tspan dominant-baseline="middle" text-anchor="start" x="30" y="7">OptimSankey</tspan></text><path d="M 3.5 0 L 21.5 0 A 3.5 3.5 0 0 1 25 3.5 L 25 10.5 A 3.5 3.5 0 0 1 21.5 14 L 3.5 14 A 3.5 3.5 0 0 1 0 10.5 L 0 3.5 A 3.5 3.5 0 0 1 3.5 0 Z" fill="#2f4554" fill-opacity="1" stroke="none" transform="matrix(1,0,0,1,411.369140625,5)" clip-path="none"></path><text transform="matrix(1,0,0,1,411.369140625,5)" fill="#333" fill-opacity="1" stroke="none" clip-path="none" style="font: 12px &quot;Microsoft YaHei&quot;;"><tspan dominant-baseline="middle" text-anchor="start" x="30" y="7">NeatSankey</tspan></text><path d="M 3.5 0 L 21.5 0 A 3.5 3.5 0 0 1 25 3.5 L 25 10.5 A 3.5 3.5 0 0 1 21.5 14 L 3.5 14 A 3.5 3.5 0 0 1 0 10.5 L 0 3.5 A 3.5 3.5 0 0 1 3.5 0 Z" fill="#61a0a8" fill-opacity="1" stroke="none" transform="matrix(1,0,0,1,519.42578125,5)" clip-path="none"></path><text transform="matrix(1,0,0,1,519.42578125,5)" fill="#333" fill-opacity="1" stroke="none" clip-path="none" style="font: 12px &quot;Microsoft YaHei&quot;;"><tspan dominant-baseline="middle" text-anchor="start" x="30" y="7">BCSankey</tspan></text></g></svg>