<svg title="graph" version="1.1" xmlns="http://www.w3.org/2000/svg"><g><rect width="900" height="500" x="0" y="0" id="0" style="fill: transparent;"></rect></g><g><path d="M 90.5 440 L 90.5 60" fill="none" stroke="#333" stroke-width="1" paint-order="fill" stroke-opacity="1" stroke-dasharray="" stroke-linecap="round" stroke-linejoin="miter" stroke-miterlimit="10" clip-path="none"></path><path d="M 90 440.5 L 810 440.5" fill="none" stroke="#333" stroke-width="1" paint-order="fill" stroke-opacity="1" stroke-dasharray="" stroke-linecap="round" stroke-linejoin="miter" stroke-miterlimit="10" clip-path="none"></path><path d="M 90 440.5 L 85 440.5" fill="none" stroke="#333" stroke-width="1" paint-order="fill" stroke-opacity="1" stroke-dasharray="" stroke-linecap="butt" stroke-linejoin="miter" stroke-miterlimit="10" clip-path="none"></path><path d="M 90 376.5 L 85 376.5" fill="none" stroke="#333" stroke-width="1" paint-order="fill" stroke-opacity="1" stroke-dasharray="" stroke-linecap="butt" stroke-linejoin="miter" stroke-miterlimit="10" clip-path="none"></path><path d="M 90 313.5 L 85 313.5" fill="none" stroke="#333" stroke-width="1" paint-order="fill" stroke-opacity="1" stroke-dasharray="" stroke-linecap="butt" stroke-linejoin="miter" stroke-miterlimit="10" clip-path="none"></path><path d="M 90 250.5 L 85 250.5" fill="none" stroke="#333" stroke-width="1" paint-order="fill" stroke-opacity="1" stroke-dasharray="" stroke-linecap="butt" stroke-linejoin="miter" stroke-miterlimit="10" clip-path="none"></path><path d="M 90 186.5 L 85 186.5" fill="none" stroke="#333" stroke-width="1" paint-order="fill" stroke-opacity="1" stroke-dasharray="" stroke-linecap="butt" stroke-linejoin="miter" stroke-miterlimit="10" clip-path="none"></path><path d="M 90 123.5 L 85 123.5" fill="none" stroke="#333" stroke-width="1" paint-order="fill" stroke-opacity="1" stroke-dasharray="" stroke-linecap="butt" stroke-linejoin="miter" stroke-miterlimit="10" clip-path="none"></path><path d="M 90 60.5 L 85 60.5" fill="none" stroke="#333" stroke-width="1" paint-order="fill" stroke-opacity="1" stroke-dasharray="" stroke-linecap="butt" stroke-linejoin="miter" stroke-miterlimit="10" clip-path="none"></path><path d="M 90.5 440 L 90.5 445" fill="none" stroke="#333" stroke-width="1" paint-order="fill" stroke-opacity="1" stroke-dasharray="" stroke-linecap="butt" stroke-linejoin="miter" stroke-miterlimit="10" clip-path="none"></path><path d="M 270.5 440 L 270.5 445" fill="none" stroke="#333" stroke-width="1" paint-order="fill" stroke-opacity="1" stroke-dasharray="" stroke-linecap="butt" stroke-linejoin="miter" stroke-miterlimit="10" clip-path="none"></path><path d="M 450.5 440 L 450.5 445" fill="none" stroke="#333" stroke-width="1" paint-order="fill" stroke-opacity="1" stroke-dasharray="" stroke-linecap="butt" stroke-linejoin="miter" stroke-miterlimit="10" clip-path="none"></path><path d="M 630.5 440 L 630.5 445" fill="none" stroke="#333" stroke-width="1" paint-order="fill" stroke-opacity="1" stroke-dasharray="" stroke-linecap="butt" stroke-linejoin="miter" stroke-miterlimit="10" clip-path="none"></path><path d="M 810.5 440 L 810.5 445" fill="none" stroke="#333" stroke-width="1" paint-order="fill" stroke-opacity="1" stroke-dasharray="" stroke-linecap="butt" stroke-linejoin="miter" stroke-miterlimit="10" clip-path="none"></path><text transform="matrix(1,2.4492937051703357e-16,-2.4492937051703357e-16,1,82,440)" fill="#333" fill-opacity="1" stroke="none" clip-path="none" style="font: 12px &quot;Microsoft YaHei&quot;;"><tspan dominant-baseline="middle" text-anchor="end" x="0" y="0">0</tspan></text><text transform="matrix(1,2.4492937051703357e-16,-2.4492937051703357e-16,1,82,376.6666564941406)" fill="#333" fill-opacity="1" stroke="none" clip-path="none" style="font: 12px &quot;Microsoft YaHei&quot;;"><tspan dominant-baseline="middle" text-anchor="end" x="0" y="0">0.1</tspan></text><text transform="matrix(1,2.4492937051703357e-16,-2.4492937051703357e-16,1,82,313.3333435058594)" fill="#333" fill-opacity="1" stroke="none" clip-path="none" style="font: 12px &quot;Microsoft YaHei&quot;;"><tspan dominant-baseline="middle" text-anchor="end" x="0" y="0">0.2</tspan></text><text transform="matrix(1,2.4492937051703357e-16,-2.4492937051703357e-16,1,82,250)" fill="#333" fill-opacity="1" stroke="none" clip-path="none" style="font: 12px &quot;Microsoft YaHei&quot;;"><tspan dominant-baseline="middle" text-anchor="end" x="0" y="0">0.3</tspan></text><text transform="matrix(1,2.4492937051703357e-16,-2.4492937051703357e-16,1,82,186.6666717529297)" fill="#333" fill-opacity="1" stroke="none" clip-path="none" style="font: 12px &quot;Microsoft YaHei&quot;;"><tspan dominant-baseline="middle" text-anchor="end" x="0" y="0">0.4</tspan></text><text transform="matrix(1,2.4492937051703357e-16,-2.4492937051703357e-16,1,82,123.33334350585938)" fill="#333" fill-opacity="1" stroke="none" clip-path="none" style="font: 12px &quot;Microsoft YaHei&quot;;"><tspan dominant-baseline="middle" text-anchor="end" x="0" y="0">0.5</tspan></text><text transform="matrix(1,2.4492937051703357e-16,-2.4492937051703357e-16,1,82,60)" fill="#333" fill-opacity="1" stroke="none" clip-path="none" style="font: 12px &quot;Microsoft YaHei&quot;;"><tspan dominant-baseline="middle" text-anchor="end" x="0" y="0">0.6</tspan></text><text transform="matrix(1,0,0,1,180,448)" fill="#333" fill-opacity="1" stroke="none" clip-path="none" style="font: 12px &quot;Microsoft YaHei&quot;;"><tspan dominant-baseline="middle" text-anchor="middle" x="0" y="6">Economics</tspan></text><text transform="matrix(1,0,0,1,360,448)" fill="#333" fill-opacity="1" stroke="none" clip-path="none" style="font: 12px &quot;Microsoft YaHei&quot;;"><tspan dominant-baseline="middle" text-anchor="middle" x="0" y="6">Teacher</tspan></text><text transform="matrix(1,0,0,1,540,448)" fill="#333" fill-opacity="1" stroke="none" clip-path="none" style="font: 12px &quot;Microsoft YaHei&quot;;"><tspan dominant-baseline="middle" text-anchor="middle" x="0" y="6">Computer</tspan></text><text transform="matrix(1,0,0,1,720,448)" fill="#333" fill-opacity="1" stroke="none" clip-path="none" style="font: 12px &quot;Microsoft YaHei&quot;;"><tspan dominant-baseline="middle" text-anchor="middle" x="0" y="6">Mechanism</tspan></text><path d="M 109 355.7667 L 146.8667 355.7667 L 146.8667 197.275 L 109 197.275 Z M 127.9333 355.7667 L 127.9333 355.7667 M 127.9333 186.6667 L 127.9333 197.275 M 109 355.7667 L 146.8667 355.7667 M 109 186.6667 L 146.8667 186.6667 M 109 292.4333 L 146.8667 292.4333" fill="#fff" fill-opacity="1" stroke="#c23531" stroke-width="1" paint-order="fill" stroke-opacity="1" stroke-dasharray="" stroke-linecap="butt" stroke-linejoin="miter" stroke-miterlimit="10" clip-path="none"></path><path d="M 289 345.1583 L 326.8667 345.1583 L 326.8667 313.3333 L 289 313.3333 Z M 307.9333 355.7667 L 307.9333 345.1583 M 307.9333 313.3333 L 307.9333 313.3333 M 289 355.7667 L 326.8667 355.7667 M 289 313.3333 L 326.8667 313.3333 M 289 313.3333 L 326.8667 313.3333" fill="#fff" fill-opacity="1" stroke="#c23531" stroke-width="1" paint-order="fill" stroke-opacity="1" stroke-dasharray="" stroke-linecap="butt" stroke-linejoin="miter" stroke-miterlimit="10" clip-path="none"></path><path d="M 469 313.3333 L 506.8667 313.3333 L 506.8667 239.55 L 469 239.55 Z M 487.9333 440 L 487.9333 313.3333 M 487.9333 102.4333 L 487.9333 239.55 M 469 440 L 506.8667 440 M 469 102.4333 L 506.8667 102.4333 M 469 270.9 L 506.8667 270.9" fill="#fff" fill-opacity="1" stroke="#c23531" stroke-width="1" paint-order="fill" stroke-opacity="1" stroke-dasharray="" stroke-linecap="butt" stroke-linejoin="miter" stroke-miterlimit="10" clip-path="none"></path><path d="M 649 376.5083 L 686.8667 376.5083 L 686.8667 229.1 L 649 229.1 Z M 667.9333 397.5667 L 667.9333 376.5083 M 667.9333 229.1 L 667.9333 229.1 M 649 397.5667 L 686.8667 397.5667 M 649 229.1 L 686.8667 229.1 M 649 271.2167 L 686.8667 271.2167" fill="#fff" fill-opacity="1" stroke="#c23531" stroke-width="1" paint-order="fill" stroke-opacity="1" stroke-dasharray="" stroke-linecap="butt" stroke-linejoin="miter" stroke-miterlimit="10" clip-path="none"></path><path d="M 161.0667 387.1167 L 198.9333 387.1167 L 198.9333 123.4917 L 161.0667 123.4917 Z M 180 397.5667 L 180 387.1167 M 180 102.4333 L 180 123.4917 M 161.0667 397.5667 L 198.9333 397.5667 M 161.0667 102.4333 L 198.9333 102.4333 M 161.0667 271.2167 L 198.9333 271.2167" fill="#fff" fill-opacity="1" stroke="#2f4554" stroke-width="1" paint-order="fill" stroke-opacity="1" stroke-dasharray="" stroke-linecap="butt" stroke-linejoin="miter" stroke-miterlimit="10" clip-path="none"></path><path d="M 341.0667 260.45 L 378.9333 260.45 L 378.9333 186.6667 L 341.0667 186.6667 Z M 360 270.9 L 360 260.45 M 360 186.6667 L 360 186.6667 M 341.0667 270.9 L 378.9333 270.9 M 341.0667 186.6667 L 378.9333 186.6667 M 341.0667 207.8833 L 378.9333 207.8833" fill="#fff" fill-opacity="1" stroke="#2f4554" stroke-width="1" paint-order="fill" stroke-opacity="1" stroke-dasharray="" stroke-linecap="butt" stroke-linejoin="miter" stroke-miterlimit="10" clip-path="none"></path><path d="M 521.0667 270.9 L 558.9333 270.9 L 558.9333 186.6667 L 521.0667 186.6667 Z M 540 440 L 540 270.9 M 540 102.4333 L 540 186.6667 M 521.0667 440 L 558.9333 440 M 521.0667 102.4333 L 558.9333 102.4333 M 521.0667 229.1 L 558.9333 229.1" fill="#fff" fill-opacity="1" stroke="#2f4554" stroke-width="1" paint-order="fill" stroke-opacity="1" stroke-dasharray="" stroke-linecap="butt" stroke-linejoin="miter" stroke-miterlimit="10" clip-path="none"></path><path d="M 701.0667 270.9 L 738.9333 270.9 L 738.9333 197.275 L 701.0667 197.275 Z M 720 270.9 L 720 270.9 M 720 186.6667 L 720 197.275 M 701.0667 270.9 L 738.9333 270.9 M 701.0667 186.6667 L 738.9333 186.6667 M 701.0667 250 L 738.9333 250" fill="#fff" fill-opacity="1" stroke="#2f4554" stroke-width="1" paint-order="fill" stroke-opacity="1" stroke-dasharray="" stroke-linecap="butt" stroke-linejoin="miter" stroke-miterlimit="10" clip-path="none"></path><path d="M 213.1333 345.1583 L 251 345.1583 L 251 197.275 L 213.1333 197.275 Z M 232.0667 355.7667 L 232.0667 345.1583 M 232.0667 186.6667 L 232.0667 197.275 M 213.1333 355.7667 L 251 355.7667 M 213.1333 186.6667 L 251 186.6667 M 213.1333 271.2167 L 251 271.2167" fill="#fff" fill-opacity="1" stroke="#61a0a8" stroke-width="1" paint-order="fill" stroke-opacity="1" stroke-dasharray="" stroke-linecap="butt" stroke-linejoin="miter" stroke-miterlimit="10" clip-path="none"></path><path d="M 393.1333 313.3333 L 431 313.3333 L 431 186.6667 L 393.1333 186.6667 Z M 412.0667 313.3333 L 412.0667 313.3333 M 412.0667 186.6667 L 412.0667 186.6667 M 393.1333 313.3333 L 431 313.3333 M 393.1333 186.6667 L 431 186.6667 M 393.1333 250 L 431 250" fill="#fff" fill-opacity="1" stroke="#61a0a8" stroke-width="1" paint-order="fill" stroke-opacity="1" stroke-dasharray="" stroke-linecap="butt" stroke-linejoin="miter" stroke-miterlimit="10" clip-path="none"></path><path d="M 573.1333 313.3333 L 611 313.3333 L 611 229.1 L 573.1333 229.1 Z M 592.0667 397.5667 L 592.0667 313.3333 M 592.0667 186.6667 L 592.0667 229.1 M 573.1333 397.5667 L 611 397.5667 M 573.1333 186.6667 L 611 186.6667 M 573.1333 270.9 L 611 270.9" fill="#fff" fill-opacity="1" stroke="#61a0a8" stroke-width="1" paint-order="fill" stroke-opacity="1" stroke-dasharray="" stroke-linecap="butt" stroke-linejoin="miter" stroke-miterlimit="10" clip-path="none"></path><path d="M 753.1333 313.3333 L 791 313.3333 L 791 270.9 L 753.1333 270.9 Z M 772.0667 313.3333 L 772.0667 313.3333 M 772.0667 270.9 L 772.0667 270.9 M 753.1333 313.3333 L 791 313.3333 M 753.1333 270.9 L 791 270.9 M 753.1333 292.1167 L 791 292.1167" fill="#fff" fill-opacity="1" stroke="#61a0a8" stroke-width="1" paint-order="fill" stroke-opacity="1" stroke-dasharray="" stroke-linecap="butt" stroke-linejoin="miter" stroke-miterlimit="10" clip-path="none"></path><path d="M -5 -5 L 315.7422 -5 L 315.7422 19 L -5 19 L -5 -5 Z" fill="rgba(0,0,0,0)" fill-opacity="1" stroke="#ccc" stroke-width="0" paint-order="fill" stroke-opacity="1" stroke-dasharray="" stroke-linecap="butt" stroke-linejoin="miter" stroke-miterlimit="10" transform="matrix(1,0,0,1,294.62890625,5)" clip-path="none"></path><path d="M 3.5 0 L 21.5 0 A 3.5 3.5 0 0 1 25 3.5 L 25 10.5 A 3.5 3.5 0 0 1 21.5 14 L 3.5 14 A 3.5 3.5 0 0 1 0 10.5 L 0 3.5 A 3.5 3.5 0 0 1 3.5 0 Z" fill="#c23531" fill-opacity="1" stroke="none" transform="matrix(1,0,0,1,294.62890625,5)" clip-path="none"></path><text transform="matrix(1,0,0,1,294.62890625,5)" fill="#333" fill-opacity="1" stroke="none" clip-path="none" style="font: 12px &quot;Microsoft YaHei&quot;;"><tspan dominant-baseline="middle" text-anchor="start" x="30" y="7">OptimSankey</tspan></text><path d="M 3.5 0 L 21.5 0 A 3.5 3.5 0 0 1 25 3.5 L 25 10.5 A 3.5 3.5 0 0 1 21.5 14 L 3.5 14 A 3.5 3.5 0 0 1 0 10.5 L 0 3.5 A 3.5 3.5 0 0 1 3.5 0 Z" fill="#2f4554" fill-opacity="1" stroke="none" transform="matrix(1,0,0,1,411.369140625,5)" clip-path="none"></path><text transform="matrix(1,0,0,1,411.369140625,5)" fill="#333" fill-opacity="1" stroke="none" clip-path="none" style="font: 12px &quot;Microsoft YaHei&quot;;"><tspan dominant-baseline="middle" text-anchor="start" x="30" y="7">NeatSankey</tspan></text><path d="M 3.5 0 L 21.5 0 A 3.5 3.5 0 0 1 25 3.5 L 25 10.5 A 3.5 3.5 0 0 1 21.5 14 L 3.5 14 A 3.5 3.5 0 0 1 0 10.5 L 0 3.5 A 3.5 3.5 0 0 1 3.5 0 Z" fill="#61a0a8" fill-opacity="1" stroke="none" transform="matrix(1,0,0,1,519.42578125,5)" clip-path="none"></path><text transform="matrix(1,0,0,1,519.42578125,5)" fill="#333" fill-opacity="1" stroke="none" clip-path="none" style="font: 12px &quot;Microsoft YaHei&quot;;"><tspan dominant-baseline="middle" text-anchor="start" x="30" y="7">BCSankey</tspan></text></g></svg>